<?xml version="1.0" ?><svg enable-background="new 0 0 512 512" id="Layer_1" version="1.1" viewBox="0 0 512 512" xml:space="preserve" xmlns="http://www.w3.org/2000/svg" xmlns:xlink="http://www.w3.org/1999/xlink"><g><g><linearGradient gradientUnits="userSpaceOnUse" id="SVGID_1_" x1="0.0000083" x2="512" y1="256" y2="256"><stop offset="0" style="stop-color:#95A5A6"/><stop offset="1" style="stop-color:#7F8C8D"/></linearGradient><circle cx="256" cy="256" fill="url(#SVGID_1_)" r="256"/><linearGradient gradientUnits="userSpaceOnUse" id="SVGID_2_" x1="42.6666756" x2="469.333313" y1="256.0005188" y2="256.0005188"><stop offset="0" style="stop-color:#7F8C8D"/><stop offset="1" style="stop-color:#95A5A6"/></linearGradient><path d="M256,469.3338623c-117.6309204,0-213.3333282-95.7018738-213.3333282-213.3333435    c0-117.6309204,95.7024078-213.333313,213.3333282-213.333313c117.636261,0,213.333313,95.7024002,213.333313,213.333313    C469.333313,373.6319885,373.636261,469.3338623,256,469.3338623z" fill="url(#SVGID_2_)"/></g><path d="M332.979187,246.7263947v-33.7445221C332.979187,174.9466705,302.0335999,144,263.9983826,144   c-38.0351715,0-68.9813232,30.9466705-68.9813232,68.9818726v33.7445221h-31.0474548V384h200.060791V246.7263947H332.979187z    M227.8677368,212.9818726c0-19.9226685,16.2090607-36.1312103,36.1306458-36.1312103s36.1306763,16.2085419,36.1306763,36.1312103   v33.7445221h-72.261322V212.9818726z" opacity="0.3"/><path d="M324.979187,238.7263947v-33.7445221C324.979187,166.9466705,294.0335999,136,255.9983978,136   s-68.9813385,30.9466705-68.9813385,68.9818726v33.7445221h-31.0474548V376h200.060791V238.7263947H324.979187z    M219.8677368,204.9818726c0-19.9226685,16.2090607-36.1312103,36.130661-36.1312103s36.130661,16.2085419,36.130661,36.1312103   v33.7445221h-72.261322V204.9818726z" fill="#FFFFFF"/></g></svg>